<?xml version="1.0" encoding="UTF-8"?>
<svg id="Layer_2" data-name="Layer 2" xmlns="http://www.w3.org/2000/svg" viewBox="0 0 230.23 256.21">
  <defs>
    <style>
      .cls-1, .cls-2 {
        fill: #fff;
      }

      .cls-2, .cls-3, .cls-4, .cls-5 {
        fill-rule: evenodd;
      }

      .cls-6 {
        fill: #00061a;
        opacity: .3;
      }

      .cls-3 {
        fill: #e0dfde;
      }

      .cls-4 {
        fill: #9a9ca5;
      }

      .cls-5 {
        fill: #c9ccd1;
      }
    </style>
  </defs>
  <g id="Layer_1-2" data-name="Layer 1">
    <g>
      <g>
        <g id="Path_3075" data-name="Path 3075">
          <path class="cls-2" d="M174.53,216.98c-2.51,0-4.99-.66-7.17-1.92l-52.55-29.9-52.77,29.55c-2.14,1.21-4.58,1.86-7.06,1.86-5.16,0-9.95-2.79-12.5-7.27-1.73-3.05-2.29-6.63-1.56-10.06l12.15-59.24L8.64,98.93c-5.83-5.34-6.23-14.44-.88-20.29,2.36-2.58,5.59-4.21,9.07-4.58l60.11-6.7,25.33-54.94c2.31-5.1,7.45-8.41,13.07-8.41,2.05,0,4.04.43,5.92,1.29,2.37,1.07,4.38,2.76,5.84,4.86h.26l1.08,2.35,24.97,55.12,60.08,7.11c3.79.43,7.21,2.32,9.6,5.32,2.39,3,3.47,6.76,3.04,10.57-.4,3.48-2.05,6.69-4.65,9.04l-44.69,40.76,11.8,59.34c1.58,7.73-3.44,15.33-11.19,16.92-.94.19-1.91.29-2.88.29Z"/>
          <path class="cls-1" d="M115.35,0h0c-7.19,0-13.75,4.23-16.72,10.78l-24.37,52.85-57.89,6.46c-4.42.47-8.54,2.55-11.56,5.86-6.84,7.47-6.32,19.11,1.15,25.95l42.74,39.52-11.7,57.03c-.92,4.38-.21,8.94,2,12.84,3.25,5.73,9.38,9.3,15.97,9.3,3.16,0,6.29-.83,9.05-2.39l50.76-28.43,50.61,28.8c2.74,1.58,5.92,2.43,9.13,2.43,1.23,0,2.47-.13,3.68-.37,9.92-2.03,16.33-11.75,14.3-21.66l-11.35-57.09,43.04-39.25c3.3-2.98,5.41-7.08,5.91-11.53,1.14-10.06-6.12-19.18-16.18-20.32l-57.79-6.84-24.04-53.06-2.12-4.68h-.92c-1.69-1.91-3.78-3.45-6.14-4.52-2.4-1.09-4.95-1.64-7.58-1.64h0Z"/>
        </g>
        <g>
          <path id="Path_3075-2" data-name="Path 3075" class="cls-5" d="M124.82,14.14l25.03,55.25c.51,1.21,1.64,2.04,2.95,2.17l60.24,7.13c5.69.65,9.78,5.78,9.13,11.47-.28,2.51-1.48,4.83-3.35,6.53l-44.82,40.88c-.99.86-1.43,2.2-1.14,3.48l11.83,59.5c1.15,5.6-2.47,11.08-8.07,12.22-2.48.51-5.06.09-7.25-1.17l-52.71-29.99c-1.13-.66-2.53-.67-3.66-.01l-52.91,29.63c-4.97,2.82-11.3,1.08-14.12-3.9-1.25-2.2-1.65-4.78-1.12-7.26l12.19-59.42c.3-1.28-.13-2.62-1.12-3.48L11.36,95.99c-4.22-3.87-4.51-10.42-.65-14.65,1.71-1.86,4.04-3.04,6.55-3.31l60.3-6.73c1.31-.12,2.44-.94,2.96-2.15l25.39-55.08c2.36-5.21,8.5-7.52,13.71-5.15,2.31,1.05,4.15,2.9,5.18,5.22h.01Z"/>
          <path id="Path_3075-3" data-name="Path 3075" class="cls-4" d="M213.04,78.7s3.79.48,6.33,3.14c2.05,2.15,3.16,5.15,2.8,8.33-.28,2.51-1.48,4.83-3.35,6.53l-44.82,40.88c-.99.86-1.43,2.2-1.14,3.48l11.83,59.5c1.15,5.6-2.47,11.08-8.07,12.22-2.48.51-5.06.09-7.25-1.17l-52.71-29.99c-1.13-.66-2.53-.67-3.66-.01l-52.91,29.63c-4.97,2.82-11.3,1.08-14.12-3.9-.01-.02-.02-.04-.04-.07-1.85-3.31-1.27-5.9-1.27-5.9l66.49-38.98c2.29-1.34,5.14-1.29,7.39.12l47.15,27.85-9.5-55.75c-.47-2.54.47-5.14,2.46-6.79l54.39-49.12Z"/>
          <path id="Path_3075-4" data-name="Path 3075" class="cls-3" d="M80.91,88.27l-69.55,7.71c-4.22-3.87-4.51-10.42-.65-14.65,1.71-1.86,4.04-3.04,6.55-3.31l60.3-6.73c1.31-.12,2.44-.94,2.96-2.15l25.39-55.08c2.36-5.21,8.5-7.52,13.71-5.15,2.31,1.05,4.15,2.9,5.18,5.22h.01s-29.55,63.8-29.55,63.8c-2.65,5.72-8.09,9.64-14.36,10.33Z"/>
          <g>
            <g>
              <path class="cls-1" d="M94.18,70.86c-.36,0-.73-.07-1.09-.23-1.35-.6-1.97-2.19-1.36-3.55l4.06-9.14c.6-1.35,2.18-1.97,3.55-1.36,1.35.6,1.97,2.19,1.36,3.55l-4.06,9.14c-.45,1-1.43,1.59-2.46,1.59Z"/>
              <path class="cls-1" d="M94.18,72.86c-.66,0-1.3-.14-1.9-.4-2.36-1.05-3.43-3.83-2.38-6.19l4.06-9.14c1.05-2.36,3.83-3.43,6.19-2.38,2.36,1.05,3.43,3.82,2.38,6.18l-4.06,9.14c-.75,1.69-2.44,2.78-4.28,2.78ZM98.24,58.34c-.26,0-.51.15-.62.41l-4.06,9.14c-.15.35,0,.75.35.91.26.12.71.09.91-.35l4.06-9.14c.15-.34,0-.75-.35-.91-.09-.04-.19-.06-.28-.06Z"/>
            </g>
            <g>
              <path class="cls-1" d="M103.61,50.43c-.36,0-.73-.07-1.09-.23-1.35-.6-1.97-2.19-1.36-3.55l11.19-25.17c.6-1.35,2.18-1.97,3.55-1.36,1.35.6,1.97,2.19,1.36,3.55l-11.19,25.17c-.45,1-1.43,1.59-2.46,1.59Z"/>
              <path class="cls-1" d="M103.61,52.43c-.66,0-1.3-.13-1.9-.4-2.36-1.05-3.43-3.83-2.38-6.19l11.19-25.17c1.05-2.36,3.82-3.42,6.18-2.38,2.36,1.05,3.43,3.83,2.38,6.19l-11.19,25.17c-.75,1.69-2.43,2.78-4.28,2.78ZM114.8,21.88c-.26,0-.51.15-.62.41l-11.19,25.17c-.15.35,0,.75.35.91.26.12.71.09.9-.35l11.19-25.17c.15-.35,0-.75-.35-.91-.09-.04-.19-.06-.28-.06Z"/>
            </g>
          </g>
        </g>
      </g>
      <ellipse class="cls-6" cx="115.12" cy="246.21" rx="61.46" ry="10"/>
    </g>
  </g>
</svg>